<?xml version="1.0" standalone="no"?>
<!DOCTYPE svg PUBLIC "-//W3C//DTD SVG 20010904//EN"
 "http://www.w3.org/TR/2001/REC-SVG-20010904/DTD/svg10.dtd">
<svg version="1.0" xmlns="http://www.w3.org/2000/svg"
 width="225.000000pt" height="225.000000pt" viewBox="0 0 225.000000 225.000000"
 preserveAspectRatio="xMidYMid meet">

<g transform="translate(0.000000,225.000000) scale(0.100000,-0.100000)"
fill="#000000" stroke="none">
<path d="M1115 1801 c-55 -26 -569 -543 -590 -593 -21 -51 -19 -124 6 -178 29
-64 504 -541 573 -575 58 -29 128 -33 184 -10 20 9 81 59 134 113 l98 97 -77
77 -77 78 171 172 c111 112 177 187 187 212 21 51 20 132 -3 181 -25 54 -383
408 -433 430 -50 20 -124 19 -173 -4z m245 -366 l155 -155 -158 -158 -157
-157 77 -78 78 -77 -78 -77 -77 -78 -230 230 c-126 126 -230 234 -230 240 0
10 450 465 460 465 3 0 75 -70 160 -155z"/>
</g>
</svg>
